<?xml version="1.0" encoding="utf-8"?>
<!-- Generator: Adobe Illustrator 22.0.1, SVG Export Plug-In . SVG Version: 6.00 Build 0)  -->
<svg version="1.1" id="Calque_1" xmlns="http://www.w3.org/2000/svg" xmlns:xlink="http://www.w3.org/1999/xlink" x="0px" y="0px"
	 viewBox="0 0 202.6 55.2" style="enable-background:new 0 0 202.6 55.2;" xml:space="preserve">
<style type="text/css">
	.st0{fill:#E51183;}
	.st1{fill:#0C3A66;}
</style>
<g>
	<path id="Tracé_673" class="st0" d="M127.8,0c-4.9,0-9.7,0.2-14.3,0.7l5.5,9.4c2.9-0.1,5.9-0.1,8.9-0.1c2.9,0,5.8,0,8.7,0.1
		l5.5-9.4C137.5,0.2,132.7,0,127.8,0"/>
	<path id="Tracé_674" class="st1" d="M138.2,10.1c7.3,0.2,14.3,0.7,21,1.3l8.4-4.1C160,5,152.1,3.5,144.2,2.8L138.2,10.1z"/>
	<path id="Tracé_675" class="st1" d="M96.4,11.4c6.7-0.6,13.7-1.1,21-1.3l-6.1-7.3c-8,0.8-15.8,2.3-23.5,4.5L96.4,11.4z"/>
	<path id="Tracé_676" class="st1" d="M18.4,24.2l1.3-3.4c-1.8-0.8-3.8-1.1-5.7-1.1c-6.2,0-10.6,3.5-10.6,8.5c0,2.6,1.7,4.8,5.1,6.7
		c2.5,1.3,4,2.5,4,4.8s-2,4-4.9,4l0,0c-2.2,0-4.3-0.5-6.3-1.4L0,45.8c2.2,1.1,4.5,1.7,7,1.7c6.7,0,11.1-3.5,11.1-8.9
		c0-2.7-1.7-4.9-5.4-6.9c-2-1-3.9-2.3-3.9-4.4c0-2.2,2-3.9,4.8-3.9C15.2,23.4,16.9,23.7,18.4,24.2"/>
	<path id="Tracé_677" class="st1" d="M42.6,27c-2.3-0.1-4.6,0.5-6.6,1.7c-1.3-1.2-3-1.7-5.7-1.7c-2.5,0-4.9,0.5-7.3,1.4l-3.4,18.5
		h4.6l3.1-16.4c0.8-0.3,1.7-0.5,2.6-0.4c4.1,0,4.2,2.2,2.8,9.1l-1.5,7.7h4.5L37,40c0.8-4.2,1-7.3,0.1-9.4c1.2-0.3,2.5-0.5,3.8-0.5
		c4.1,0,4.5,3.1,3.3,9.1l-1.5,7.7h4.6c0,0,1-5,1.4-6.9C50.6,30.6,48.5,27,42.6,27"/>
	<path id="Tracé_678" class="st1" d="M65.2,35.9c-0.9,5-3.6,7.7-5.7,7.7c-2,0-2.8-1.7-2.8-3.7c0-4.4,3.3-9.3,7.6-9.3
		c0.6,0,1.3,0.1,1.9,0.2L65.2,35.9z M71.5,27.9c-1.9-0.6-3.9-0.9-5.9-0.9c-9.1,0-13.7,7.1-13.7,13.7c0,3.9,2.3,6.6,5.8,6.6
		c2.5,0,4.9-1.4,6.2-3.6l0,0l0,0l-0.6,3.1h4.5C67.7,46.9,71.5,27.9,71.5,27.9"/>
	<path id="Tracé_679" class="st1" d="M84.4,27.4c-2,0-3.9,0.9-5.1,2.5c-0.1,0.1-0.2,0.1-0.3,0c-0.1,0-0.1-0.1-0.1-0.2l0.5-2.4h-4.3
		l-3.8,19.5H76l1.5-7.8c0.8-4.2,3-8.1,6.3-8.1h1l0.8-3.6C85.5,27.4,84.8,27.4,84.4,27.4"/>
	<path id="Tracé_680" class="st1" d="M94,22.4l-1,5h4.4L96.8,31h-4.4l-1.6,7.9c-0.2,0.9-0.3,1.8-0.3,2.7c-0.1,0.8,0.4,1.6,1.3,1.8
		c0.1,0,0.3,0,0.4,0c0.5,0,1.1,0,1.6-0.1L93.1,47c-0.9,0.2-1.8,0.3-2.7,0.3c-3.2,0-4.6-1.8-4.6-4c0-1.2,0.2-2.4,0.4-3.6l1.7-8.7
		l0.7-3.6l0.7-3.6L94,22.4z"/>
	<path id="Tracé_681" class="st1" d="M110.4,32.5c0-1.2-1-2-2.5-2c-2.9,0-4.8,2.6-5.4,5C107.3,35.5,110.4,34.8,110.4,32.5
		L110.4,32.5z M112.3,45.8c-2.1,1-4.5,1.6-6.9,1.6c-5.4,0-8-3.3-8-8.1c0-5.9,4.3-12.3,11-12.3c3.8,0,6.3,2.2,6.3,5.5
		c0,5-5.2,6.6-12.7,6.4c-0.1,0.9,0.1,1.9,0.5,2.8c0.9,1.4,2.4,2.1,4,2c1.9,0,3.7-0.4,5.4-1.3L112.3,45.8z"/>
	<path id="Tracé_682" class="st1" d="M116.2,42.5c1.4,0.8,3,1.2,4.7,1.3c1.9,0,3-1.1,3-2.4c0-1.2-0.6-2-2.6-3
		c-2.2-1.2-3.8-2.8-3.8-5.1c0-3.8,3.3-6.4,7.9-6.4c1.6-0.1,3.2,0.3,4.6,1l-1.2,3.4c-1.1-0.6-2.4-0.9-3.6-0.9c-1.8,0-3,1-3,2.3
		c0,1.1,0.9,1.8,2.5,2.7c2.1,1.2,4,2.8,4,5.2c0,4.3-3.6,6.7-8.3,6.7c-1.9,0-3.8-0.5-5.4-1.4L116.2,42.5z"/>
	<path id="Tracé_683" class="st1" d="M134.9,23.8l4.8-1.4l-1,5h4.4l-0.7,3.6H138l-1.6,7.9c-0.2,0.9-0.3,1.8-0.3,2.7
		c-0.1,0.8,0.4,1.6,1.3,1.8c0.1,0,0.3,0,0.4,0c0.5,0,1.1,0,1.6-0.1l-0.7,3.8c-0.9,0.2-1.8,0.3-2.7,0.3c-3.2,0-4.6-1.8-4.6-4
		c0-1.2,0.2-2.4,0.4-3.6L134.9,23.8z"/>
	<path id="Tracé_684" class="st1" d="M149.9,24.6c-1.3,0-2.3-1-2.4-2.3c0-0.1,0-0.1,0-0.2c0-1.5,1.2-2.8,2.7-2.8h0.1
		c1.3,0,2.4,1,2.5,2.3c0,0.1,0,0.1,0,0.2c0,1.5-1.2,2.8-2.7,2.8C150,24.6,150,24.6,149.9,24.6L149.9,24.6z M143.1,46.9l3.7-19.5h4.6
		l-3.7,19.5H143.1z"/>
	<path id="Tracé_685" class="st1" d="M165.3,39.1c1.3-6.9,0.6-9.1-3.4-9.1c-0.9,0-1.8,0.1-2.6,0.4l-3.1,16.4h-4.6l3.4-18.5
		c2.3-0.9,4.8-1.3,7.3-1.4c7.2,0,9.1,4,7.4,12.9l-1.3,6.9h-4.5L165.3,39.1z"/>
	<path id="Tracé_686" class="st1" d="M187.2,31.1c-0.8-0.3-1.7-0.5-2.6-0.5c-4.1,0-6.9,4.4-6.9,8.6c0,2,0.8,4,3.1,4
		s4.6-2.8,5.3-6.3L187.2,31.1z M173.1,50.3c1.6,0.8,3.4,1.2,5.2,1.2c3,0,5.4-1.4,6.3-6l0.5-2.2H185c-1.3,2.1-3.6,3.4-6.1,3.4
		c-3.9,0-6.1-3.2-6.1-6.9c0-6.5,4.7-12.9,12.7-12.9c2.3,0,4.6,0.5,6.8,1.4l-3,16.1c-0.7,3.8-1.8,6.8-4,8.7c-2.1,1.5-4.6,2.3-7.2,2.2
		c-2.1,0.1-4.2-0.4-6.1-1.3L173.1,50.3z"/>
	<path id="Tracé_687" class="st1" d="M198.8,22.1h0.5c0.4,0,0.9,0,0.9-0.5s-0.5-0.5-0.9-0.5h-0.5V22.1z M198.1,20.5h1.4
		c0.9,0,1.3,0.4,1.3,1.1c0,0.5-0.3,1-0.8,1l0,0l1,1.6h-0.7l-0.9-1.5h-0.5v1.5h-0.7L198.1,20.5z M199.4,25c1.5,0,2.6-1.2,2.6-2.6
		s-1.2-2.6-2.6-2.6c-1.5,0-2.6,1.2-2.6,2.6S197.9,25,199.4,25 M199.4,19.2c1.8,0,3.2,1.4,3.2,3.2c0,1.8-1.4,3.2-3.2,3.2
		s-3.2-1.4-3.2-3.2C196.1,20.6,197.6,19.2,199.4,19.2"/>
</g>
</svg>
